# xmcd CD database file
#
# Track frame offsets:
#	150
#	16437
#	31207
#	48890
#	67732
#	84267
#	100722
#	112437
#	124867
#	138705
#	151382
#	165690
#
# Disc length: 2699 seconds
#
# Revision: 0
# Processed by: cddbd v1.5.2PL0 Copyright (c) Steve Scherf et al.
# Submitted via: CDex 1.70beta2
#
DISCID=980a890c
DTITLE=Various Artist - Ještě spí chata na skále nad řekou
DYEAR=1996
DGENRE=Country
TTITLE0=Ještě spí chata na skále nad řekou
TTITLE1=Zlatovlasá lady (Líbám tě dnes naposledy)
TTITLE2=Karavana
TTITLE3=Holka vokatá
TTITLE4=Láska lehkomyslná
TTITLE5=Domů
TTITLE6=Koukej se hnout
TTITLE7=Dobrej den
TTITLE8=Pravidelně v sobotu
TTITLE9=Pro těch pár slušných
TTITLE10=Overland
TTITLE11=Vtipy a parodie
EXTD=YEAR: 1996
EXTT0=
EXTT1=
EXTT2=
EXTT3=
EXTT4=
EXTT5=
EXTT6=
EXTT7=
EXTT8=
EXTT9=
EXTT10=
EXTT11=
PLAYORDER=
